<?xml version="1.0" encoding="UTF-8" standalone="no"?>
<!-- Created with Inkscape (http://www.inkscape.org/) -->

<svg
   width="16"
   height="16"
   viewBox="0 0 4.2333331 4.2333334"
   version="1.1"
   id="svg1"
   xml:space="preserve"
   xmlns="http://www.w3.org/2000/svg"
   xmlns:svg="http://www.w3.org/2000/svg"><defs
     id="defs1" /><g
     id="layer1"><path
       style="fill:#37bcf7;stroke:#37bcf7;stroke-width:0.0374117;stroke-opacity:1"
       d="M 2.0154555,3.7818094 1.9104284,3.596524 2.0315717,3.593764 2.1527156,3.591004 2.1836176,3.509129 c 0.016994,-0.045031 0.030902,-0.084991 0.030902,-0.088801 0,-0.00381 -0.092427,-0.00706 -0.2053954,-0.00723 L 1.8037283,3.4127948 1.6479765,3.1384118 1.4922247,2.8640281 1.8088282,2.861416 c 0.1741321,-0.00144 0.4590465,-0.00144 0.6331434,0 l 0.3165396,0.00261 -0.054857,0.096511 -0.054857,0.096511 H 2.2378494 1.8269014 l 0.00686,0.031223 c 0.00378,0.017173 0.014569,0.053921 0.023997,0.081663 l 0.017139,0.05044 0.3373673,0.00495 0.3373679,0.00495 -0.2096259,0.3683865 C 2.2247106,3.8012732 2.1281528,3.9670572 2.1254304,3.9670696 2.1226893,3.9670819 2.0732189,3.8837136 2.015454,3.7818067 Z M 1.2815794,2.6949118 1.1850682,2.6400551 V 2.2291071 1.8181593 l -0.031224,0.00686 c -0.017173,0.00377 -0.053921,0.014571 -0.081663,0.023998 l -0.050441,0.01714 -0.00495,0.3373672 -0.00495,0.3373671 L 0.64345463,2.3312624 C 0.4408424,2.2159686 0.27505838,2.1194101 0.27504603,2.116688 0.27503368,2.113968 0.35840173,2.064476 0.46030891,2.0067119 l 0.1852857,-0.1050269 0.00276,0.1209121 0.00276,0.1209122 0.0795357,0.031133 c 0.0437455,0.017123 0.0837066,0.031133 0.0888028,0.031133 0.005445,0 0.009391,-0.084634 0.009567,-0.2053953 L 0.82932339,1.7949846 1.1037069,1.6392325 1.3780903,1.4834808 l 0.00261,0.3166035 c 0.00144,0.1741319 0.00144,0.4590462 0,0.633143 l -0.00261,0.3165398 z M 2.8678241,2.1110459 c 0,-0.3507698 0.00186,-0.6377634 0.00414,-0.6377634 0.00604,0 1.0776841,0.632418 1.0862803,0.6410556 0.00402,0.00401 -0.239712,0.1484138 -0.5415746,0.3208855 L 2.8678231,2.7488092 Z M 3.3314944,2.2602651 C 3.5279494,2.1473777 3.586916,2.1091594 3.5777388,2.1006666 3.5710961,2.0945291 3.4609955,2.0283153 3.333056,1.953534 3.2051173,1.878753 3.0904174,1.8112711 3.0781686,1.8035744 l -0.02227,-0.013993 V 2.102439 c 0,0.1742028 0.00383,0.3113957 0.00864,0.3095583 0.00476,-0.00181 0.1248839,-0.070094 0.2669547,-0.1517311 z M 1.5282873,1.3065549 C 1.6777451,1.0392423 2.1214275,0.26629791 2.1254319,0.2662632 c 0.00595,-5.249e-5 0.2771599,0.47714331 0.2771599,0.48766546 0,0.004042 -0.045615,0.006081 -0.1013634,0.004528 L 2.1998649,0.7556408 2.1651207,0.69403948 c -0.019109,-0.0338806 -0.036968,-0.0615723 -0.039693,-0.0615368 -0.00603,7.859e-5 -0.306856,0.52596362 -0.306856,0.53641752 0,0.00408 0.1380849,0.00741 0.306856,0.00741 0.16877,0 0.3068555,-0.00298 0.3068555,-0.00662 0,-0.00364 -0.013488,-0.030521 -0.029971,-0.059729 l -0.029971,-0.053105 0.1053183,0.00282 0.1053183,0.00282 0.05147,0.089087 c 0.02831,0.048998 0.068281,0.1191541 0.088831,0.1559026 l 0.037361,0.066815 H 2.1255271 1.4904117 Z"
       id="path8" /><path
       style="fill:#0b496d;stroke:#0b496d;stroke-width:0.0374117;stroke-opacity:1"
       d="M 1.9679566,4.0923275 C 1.4906291,4.0591737 0.98612086,3.8121482 0.67192023,3.4577411 0.52520417,3.2922508 0.44603391,3.1767464 0.35575685,2.9964798 0.12964486,2.5449752 0.08828378,2.0056986 0.24283787,1.5242182 0.47377817,0.80477291 1.094095,0.27933484 1.8442247,0.16776686 c 0.1449056,-0.0215514 0.4193124,-0.0215514 0.5642179,0 C 3.4304821,0.3197765 4.1624424,1.228317 4.0950806,2.2612945 4.0491243,2.9660196 3.6059965,3.6097087 2.9582395,3.912675 2.6651905,4.0497387 2.3023895,4.1155566 1.9679566,4.0923275 Z M 2.2550151,4.0334268 C 3.0752469,3.9732644 3.7589688,3.4112476 3.9769424,2.6180091 4.0770864,2.2535738 4.0562095,1.8222601 3.9208854,1.4598774 3.5399324,0.43972487 2.4056777,-0.05845067 1.3977132,0.3516763 0.64360423,0.65851313 0.15916113,1.4313999 0.21512625,2.238392 c 0.005988,0.086294 0.0218199,0.2095101 0.0351867,0.273812 0.17258514,0.8301583 0.88089415,1.4554543 1.72259315,1.5207061 0.1440956,0.011171 0.1370258,0.011159 0.2821091,5.127e-4 z M 1.9828046,2.7902075 C 1.9446951,2.7823644 1.8711981,2.7552648 1.8194778,2.7299866 1.7412828,2.691768 1.7117507,2.6701858 1.6441657,2.6018663 1.5777947,2.5347745 1.5547585,2.5028523 1.5185552,2.4278034 1.4064505,2.1954146 1.4205139,1.9552302 1.5585013,1.7455821 1.6232565,1.6471964 1.7136839,1.567935 1.8217433,1.514845 2.0258934,1.4145452 2.2274829,1.4148808 2.4329739,1.5158741 2.7619228,1.677525 2.900768,2.0842326 2.7399608,2.4151001 2.6675806,2.5640251 2.5671299,2.6644571 2.418341,2.7366604 2.2830028,2.8023369 2.1319444,2.8209126 1.9828048,2.790219 Z M 2.3193554,2.7130552 C 2.5795037,2.6298989 2.7655939,2.3599958 2.7465495,2.0934586 2.7357234,1.9419255 2.6809121,1.8109078 2.5850152,1.7073271 2.3376908,1.4401881 1.9399038,1.4323008 1.6824397,1.68943 1.4264599,1.9450779 1.4502467,2.3696242 1.733801,2.606131 1.8896994,2.7361624 2.1171379,2.7776933 2.3193554,2.7130552 Z M 2.048923,2.2747095 C 2.030847,2.2657995 2.00412,2.2428645 1.989531,2.2237385 1.966905,2.1940735 1.963005,2.1792815 1.963005,2.1230816 c 0,-0.056285 0.00388,-0.070973 0.026661,-0.1008377 0.037397,-0.049033 0.087498,-0.070683 0.1513096,-0.065391 0.090229,0.00748 0.1538164,0.077219 0.1534668,0.1683092 -4.66e-4,0.1212556 -0.1357359,0.2036494 -0.2455231,0.1495483 z m 0.1526398,-0.0764 c 0.027592,-0.027591 0.033652,-0.041147 0.033652,-0.075229 0,-0.034082 -0.00606,-0.047639 -0.033652,-0.075229 -0.027591,-0.027591 -0.041146,-0.033655 -0.075229,-0.033655 -0.034082,0 -0.047638,0.00606 -0.075229,0.033655 -0.027592,0.02759 -0.033658,0.041146 -0.033658,0.075229 0,0.034082 0.00606,0.047639 0.033658,0.075229 0.027592,0.02759 0.041146,0.033655 0.075229,0.033655 0.034082,0 0.047637,-0.00606 0.075229,-0.033655 z"
       id="path7" /></g></svg>
